<svg width="21" height="21" viewBox="0 0 21 21" fill="none" xmlns="http://www.w3.org/2000/svg">
<path d="M0.5 6.682V19.5083C0.5 20.056 0.947715 20.5 1.5 20.5H7.5C8.05228 20.5 8.5 20.056 8.5 19.5083V14.054H12.5V19.5083C12.5 20.056 12.9477 20.5 13.5 20.5H19.5C20.0523 20.5 20.5 20.056 20.5 19.5083V6.682C20.5 6.33366 20.3157 6.01085 20.0145 5.83163L11.529 0.782645C10.8956 0.405785 10.1044 0.405785 9.47101 0.782645L0.985505 5.83163C0.684299 6.01085 0.5 6.33366 0.5 6.682Z" fill="white"/>
<path d="M0.5 6.682V19.5083C0.5 20.056 0.947715 20.5 1.5 20.5H7.5C8.05228 20.5 8.5 20.056 8.5 19.5083V14.054H12.5V19.5083C12.5 20.056 12.9477 20.5 13.5 20.5H19.5C20.0523 20.5 20.5 20.056 20.5 19.5083V6.682C20.5 6.33366 20.3157 6.01085 20.0145 5.83163L11.529 0.782645C10.8956 0.405785 10.1044 0.405785 9.47101 0.782645L0.985505 5.83163C0.684299 6.01085 0.5 6.33366 0.5 6.682Z" stroke="black"/>
</svg>
